<svg id="Capa_1" data-name="Capa 1" xmlns="http://www.w3.org/2000/svg" viewBox="0 0 269.23 266.84"><defs><style>.cls-1{fill:#333;}.cls-2{fill:#f7cb46;}.cls-3{fill:#eba439;}.cls-4{fill:#f12539;}.cls-5{fill:#eaa439;}.cls-6{fill:#353433;}.cls-7{fill:#fefefe;}.cls-8{fill:#f16980;}.cls-9{fill:#6c4c59;}.cls-10{fill:#b84966;}</style></defs><path class="cls-1" d="M65.47,65.59a2.47,2.47,0,0,0,.8-1.13C76.75,39.75,94.34,21.64,117.81,9A85.7,85.7,0,0,1,141,.29c.23,0,.45-.19.68-.24,1.05-.24,1.75.42,1.46,1.42a136.72,136.72,0,0,1-9.82,25.74A108.08,108.08,0,0,1,116,51.48a9,9,0,0,0-1.87,2.12c-.22.72-.87,1.07-1.36,1.61.18.2.69,0,.67.49-3.54,1.24-5.52,4.45-8.34,6.59-1.36,1-2.63,2.19-4,3.45a35.46,35.46,0,0,0,4-.29,83.67,83.67,0,0,1,31.23,3.16,65.46,65.46,0,0,1,20.08,9.64,1.9,1.9,0,0,0,2,.12,97.48,97.48,0,0,1,15.35-4.59l2.46-.45c1.29.4,2.51-.18,3.73-.38a118.39,118.39,0,0,1,22.17-1.38c22.35.6,43,7.15,62.14,18.42l3.7,2.2c1.08.64,1.11,1.45,0,2a109.65,109.65,0,0,1-29.61,11.17,117.72,117.72,0,0,1-28.39,2.4c-.88,0-1.77-.43-2.66,0a7.91,7.91,0,0,1-2.38,0c-3.56-.44-7.13-.84-10.67-1.49a138.39,138.39,0,0,1-15-3.67c-.36-.11-.8-.43-1.12-.14s0,.75.07,1.12a48.69,48.69,0,0,1,1.46,11.14c0,2.07.42,4.13.24,6.21-.07.76.48.92,1.06,1l4.95.91q13.14,2.41,26.11,5.63a13.61,13.61,0,0,0,2.11.43c.82.09,1.49.82,2.4.59.21.55.66.68,1.19.82a196.34,196.34,0,0,1,50.32,21.49,2.09,2.09,0,0,1,1.11,2.33c-.37,5.16-.85,10.32-1.57,15.45-2.24,16.05-5.53,31.82-12.68,46.53-1.4,2.9-1.41,2.5-3.73,1-11.52-7.42-23.48-14.06-35.58-20.46-.31-.16-.59-.44-1-.15a11.05,11.05,0,0,0-1.83-.89c-5.46-3.08-11.14-5.72-16.8-8.41-3.82-1.82-7.68-3.55-11.62-5.09a5.64,5.64,0,0,0-1.23-.43,255.82,255.82,0,0,1,14.59,42.1c.25,2.24-.28,2.87-2.59,3a77.81,77.81,0,0,0-8.22.49c-2.19.19-4.37.49-6.54.81-.92.13-1,.48-.68,1.26a58.37,58.37,0,0,0,4.65,8.36c.6,1.57.2,2.35-1.31,2.6a20.29,20.29,0,0,1-2.88-4.39A91.25,91.25,0,0,1,170,206.76a120.55,120.55,0,0,1-1.78-16.3c-.1-2.27-.15-4.54-.2-7a9,9,0,0,0-1.81,1.42,67,67,0,0,1-14.6,10.4c-2.55,1.41-5.11,2.81-7.72,4.11a4.28,4.28,0,0,1-1.23.47c-.41.05-.83,0-1-.39a1,1,0,0,1,.21-1.11,3.78,3.78,0,0,1,1.06-.75c5-2.95,10.11-5.68,14.88-9a65.73,65.73,0,0,0,7.16-5.64c-.33-.43-.81-.38-1.21-.49-5.68-1.47-9.08-5.16-10.29-10.82a24,24,0,0,1,1.2-14.24A15.92,15.92,0,0,1,170.1,148a12.34,12.34,0,0,1,5.35,2c.61.37,1.16.83,1.92,1.22-.38-2.24-.63-4.4-.81-6.57a55.8,55.8,0,0,1,0-7.54c.2-3.58.55-7.16.85-10.73a81.43,81.43,0,0,0,.21-8.26A59.62,59.62,0,0,0,176,104.26a23.58,23.58,0,0,0-3.24-7.17c-1.05-1.61-2.08-3.23-3.24-4.76a3.57,3.57,0,0,1-.51-.81,1,1,0,0,1,.23-1.2.89.89,0,0,1,1.11.06,10.3,10.3,0,0,1,2.15,2.07,36.54,36.54,0,0,1,2.8,3.75c.41.86,1,1.65,1.35,2.53a1.6,1.6,0,0,0,1,.9,142.63,142.63,0,0,0,15.23,4c.16,0,.32,0,.48,0,2.46.54,4.95.88,7.45,1.21a4.63,4.63,0,0,0,1.89-.14c6.77-1.89,13.32-4.3,19.23-8.17a47.32,47.32,0,0,0,12.31-11.08,10.43,10.43,0,0,0,2-4.19c.28-1.35.1-1.69-1.24-2.12a124.8,124.8,0,0,0-19-4.36,112.84,112.84,0,0,0-22.33-1.17,108.88,108.88,0,0,0-33.15,6.49c-.72.27-1.4.6-2.09.91a2.41,2.41,0,0,1-2.69-.3,50.62,50.62,0,0,0-7.07-4.5,69.52,69.52,0,0,0-14.44-5.76,83.77,83.77,0,0,0-26.69-2.85A71.51,71.51,0,0,0,83.2,73c-.74.31-1.47.63-2.24.87-.57.17-1.15.19-1.43-.46s.16-1,.62-1.28A37.32,37.32,0,0,1,86.84,69c1.36-.47,2.73-.92,4.1-1.36s2.94-.73,4.45-.93a3.83,3.83,0,0,0,1.94-.88,179.43,179.43,0,0,0,15.45-14,14,14,0,0,0,1-1.06,95.47,95.47,0,0,0,13.38-16.86c.41-.63.81-1.28,1.22-1.92s.33-1.17-.52-1.4a17.17,17.17,0,0,0-4-.62,57.32,57.32,0,0,0-9.07.56c-2.46.28-4.92.57-7.36,1a56.12,56.12,0,0,0-18,7.22,94.76,94.76,0,0,0-9.75,6.54,6.13,6.13,0,0,0-1.33,1.36A104.52,104.52,0,0,0,63.18,80.38a.69.69,0,0,0,0,.53,21.45,21.45,0,0,1,4.69-3c.69-.29,1.54-1,2.13,0s-.45,1.39-1,1.84A52.28,52.28,0,0,0,63,84.5a28.18,28.18,0,0,0-8.24,14.73c-.91,4.63-1.35,9.33-2.18,14A134.07,134.07,0,0,1,47,135.61c-.25.67-.52,1.34-.78,2a8.34,8.34,0,0,0-.77,2,20.55,20.55,0,0,1,4.79-1.45,12.51,12.51,0,0,1,9,2.48,17.19,17.19,0,0,1,6.58,10,21.48,21.48,0,0,1-.8,14.65c-2,4.59-5.83,6.57-10.5,7.32-.5.08-1.22-.12-1.41.39s.45.87.76,1.27a161.85,161.85,0,0,0,15,16A91.81,91.81,0,0,0,77,197.48a2.73,2.73,0,0,1,.35.33c.39.42.8.88.34,1.46s-1,.34-1.5,0a50.52,50.52,0,0,1-4.66-3.58,191.81,191.81,0,0,1-14.61-14.19,75.23,75.23,0,0,1-12.44-17,33,33,0,0,1-4-13.56,1.59,1.59,0,0,0-1-1.45c-5-2.54-10.08-4.84-15.17-7.16-2-.91-4-1.74-6.07-2.58-.83-.35-1.21-.16-1.46.71-.61,2.07-1.15,2.36-3.34,2-1-.16-2-.31-3-.49-.65-.12-.92.09-.78.76.06.31.13.62.18.94a2,2,0,0,1-2,2.5c-1.49.15-1.49.15-1.33,1.68s-.31,2.15-1.74,2.35c-.9.13-1.08.47-.76,1.26a4.79,4.79,0,0,1,.28.91c.19,1,.2,2-1,2.56-.43.21-.5.51-.2.86C5.2,158.21,6,161.18,7,164c3.82,11.22,9.55,21.42,16.26,31.13,2.59,3.75,5.27,7.43,8.09,11a85.15,85.15,0,0,0,18.06,17.58c.38-2.43.69-4.65.86-6.9.61-5.67,1-11.37,1.44-17.05.05-.52.15-1,.23-1.54s.31-1.15,1-1.11.79.68.85,1.24c0,.32,0,.64,0,1A141.69,141.69,0,0,1,52,224a101.89,101.89,0,0,1-2.45,11.35c-.41,1.45-.35,1.47,1.13,1.38a24.58,24.58,0,0,1,11.3,1.5c.22.09.44.18.66.29.61.32,1.35.64,1.08,1.48s-1.1.63-1.73.43a28,28,0,0,0-7.3-1.28,23.76,23.76,0,0,0-8.6,1.3c-1,.1-1.48-.67-1.91-1.36s.18-.83.64-1a2,2,0,0,0,1.78-1.78c.74-2.86,1.58-5.69,2.2-8.58a1.61,1.61,0,0,0-.77-1.92,77.55,77.55,0,0,1-16.16-15A192.34,192.34,0,0,1,14.35,186a39.45,39.45,0,0,0-2.34-3.9c-.85-2.18-2.35-4.07-2.88-6.4-2.11-4.87-3.79-9.92-5.77-14.84A11.5,11.5,0,0,0,1.17,157a4.78,4.78,0,0,1-1-1.75c-.41-1.11,0-1.94,1.13-2.13.7-.11.78-.33.55-.91a8,8,0,0,1-.4-1.37c-.36-1.79.16-2.57,2-2.75.69-.08.76-.31.67-.88s0-.87,0-1.31a1.54,1.54,0,0,1,1.38-1.67,3.71,3.71,0,0,1,.48,0C7.5,144,7.5,144,7.23,142.4c-.3-1.79.23-2.5,2.14-2.69.41-.05.52-.28.69-.53a4.56,4.56,0,0,0,2.09.43c.35.1.69.19,1,.26a.92.92,0,0,0,1.25-.74,5.77,5.77,0,0,1,.29-.79c.68-1.54,1.46-1.92,3-1.41A82.64,82.64,0,0,1,26,140.34c4.52,2,9,4.08,13.44,6.34,1.06.54,1.15.47,1.35-.73a24.48,24.48,0,0,1,1.91-6.29c3.17-6.88,5-14.16,6.49-21.53,1.22-6,1.91-12,3-18A28.47,28.47,0,0,1,59,85.37,5,5,0,0,0,60.16,83a105.94,105.94,0,0,1,4.28-14.72C64.74,67.38,65.17,66.51,65.47,65.59Z"/><path d="M183.2,240.4c.89-.53,1.6-1.16,1.2-2.35-.15-.41.22-.55.43-.75a133.68,133.68,0,0,0,9.38-9.81,1.76,1.76,0,0,1,1-.76c.55-.46,1.36,0,1.92-.68s.32-1.47.41-2.21a1.9,1.9,0,0,1,.54-1.29,102.66,102.66,0,0,0,14.12-25.83,1.91,1.91,0,0,1,.77-1.17c.7.13,1.4.24,1.68,1a95.27,95.27,0,0,1-10.19,20.76c-15.33,23.55-36.53,39.12-63.78,46.16A106.65,106.65,0,0,1,9.42,178.15c-.14-.82-.2-1.65-.29-2.49,1,2.07,2.2,4.08,3.09,6.23,1.14,2.65,1.55,5.51,2.37,8.26A104.18,104.18,0,0,0,26.46,216.1a107.36,107.36,0,0,0,17.91,21.29c.25.24.62.41.49.87-.51.29-1,.57-.22,1.12.41.31.76.69,1.13,1,.48-.18.75.18,1,.43a105.43,105.43,0,0,0,22.39,14.4,102.87,102.87,0,0,0,22.93,7.85,86.72,86.72,0,0,0,13,1.94,19.32,19.32,0,0,0,2.15.21c2.59,0,5.16.29,7.76.26a106.42,106.42,0,0,0,35.38-6.34c.38-.14.74-.31,1.11-.46a43.29,43.29,0,0,0,5.15-2c2.64-1.14,5.16-2.53,7.74-3.79a99,99,0,0,0,11.34-7.07c2.24-1.59,4.4-3.29,6.51-5C182.54,240.61,182.78,240.3,183.2,240.4Z"/><path d="M11.93,139.71c-.77.34-1.44.32-1.87-.53a88.54,88.54,0,0,1,4.6-16.3Q29.15,85.17,64.72,65.94a7.27,7.27,0,0,1,.75-.35c.28,1-.52,1.76-.72,2.66-1.61,1.48-3.64,2.31-5.45,3.46A109.54,109.54,0,0,0,45.15,82.36a104.79,104.79,0,0,0-18.08,21,102.88,102.88,0,0,0-14.36,34.16C12.55,138.27,12.58,139.12,11.93,139.71Z"/><path d="M113.43,55.56l-1.19-.13a11.31,11.31,0,0,1,1.93-1.83,106,106,0,0,1,61.42,19.22c.23.16.44.34.67.51-.68.71-1.6.58-2.45.7a2.78,2.78,0,0,1-1.53-.63,102.91,102.91,0,0,0-43.53-16.5c-3.36-.46-6.74-.73-10.13-.86A18.15,18.15,0,0,1,113.43,55.56Z"/><path d="M205,107.55c.81.07,1.64-.19,2.4.26a105.09,105.09,0,0,1,9.07,21.08c.07.22.1.46.16.69-.9.79-1.49,0-2.15-.41-.55-.31-.62-.91-.78-1.42a108.6,108.6,0,0,0-6.39-15.32c-.61-1.21-1.34-2.35-2-3.56C205.09,108.46,204.73,108.08,205,107.55Z"/><path class="cls-2" d="M151.82,258.89a56.59,56.59,0,0,1-10,3.34,105.34,105.34,0,0,1-34.64,3.34c-.62-.28-.52-.82-.47-1.34a92.52,92.52,0,0,1,2.85-14.56,73.26,73.26,0,0,1,6.55-17.08,126.1,126.1,0,0,1,8.14-12.7c1.35-1.88,2.78-3.7,4.17-5.55.25-.33.67-.61.5-1.18-.61,0-.9.49-1.23.84a79.35,79.35,0,0,0-7.94,10.05,75.58,75.58,0,0,0-8.62,16.13,104.43,104.43,0,0,0-5.62,22.5c-.12.89.06,1.86-.52,2.66a94.84,94.84,0,0,1-18.24-3.21,104.69,104.69,0,0,1-40.54-21.36l-.48-.36c.69-.78,1.71-.76,2.59-1a26.24,26.24,0,0,1,13.81.7c.44.14,1.06.62,1.34-.11s-.42-.9-.92-1.12a22.68,22.68,0,0,0-12.75-1.67c-.88.12-1.32.17-1-1a74.16,74.16,0,0,0,2.33-9.4,158.39,158.39,0,0,0,2.39-28.09,3.85,3.85,0,0,0,0-.48c0-.44,0-1-.66-.93s-.61.41-.65.86c-.13,1.55-.32,3.09-.44,4.64-.38,4.77-.67,9.55-1.26,14.3-.44.34-.84.05-1.24-.07a46.83,46.83,0,0,1-13.15-6.66,32.89,32.89,0,0,1-5-4,181.59,181.59,0,0,1-10.8-14.94A126,126,0,0,1,5.77,161.63a15.69,15.69,0,0,0-3.59-6.44c2.26-1.12,2.29-1.19,1.45-3.69-.48-1.41-.48-1.41,1-1.52s1.79-.61,1.58-2c-.26-1.81-.26-1.81,1.45-2s2.15-.83,1.79-2.61-.36-1.83,1.51-1.54c1.07.16,2.13.38,3.19.5,1.46.17,1.75-.07,2.21-1.56.56-1.81.56-1.81,2.29-1.1,7.23,3,14.3,6.32,21.3,9.81.43.21.82.38.84,1,.19,6.66,2.87,12.45,6.31,18a95.61,95.61,0,0,0,13.67,16.62c4.83,4.84,9.64,9.69,15.2,13.72a1.33,1.33,0,0,0,.19.14c.46.27,1,.88,1.44.24s-.24-1-.64-1.31A213.13,213.13,0,0,1,59.62,181.3a101.23,101.23,0,0,1-7.45-8.69c1-.14,1.91-.22,2.78-.38,6.36-1.14,9.91-4.71,11-11.11a21.45,21.45,0,0,0-3.26-16.47,13.52,13.52,0,0,0-10.4-6.28,11.79,11.79,0,0,0-6.24,1.33c-.35.17-.64.5-1.08.45-.23-.17-.11-.35,0-.53,3.29-7.2,5-14.86,6.59-22.57,1.14-5.63,1.73-11.36,2.72-17,1.4-8,5.8-14.05,12.15-18.84,1-.77,2-1.54,3.06-2.32.28-.21.6-.45.39-.88s-.61-.39-1-.24a19.41,19.41,0,0,0-5.19,3.16c-.31.23-.55.58-1.07.64a103.69,103.69,0,0,1,4-13.3,101.65,101.65,0,0,1,11.51-22,3.93,3.93,0,0,1,.78-.89A83.88,83.88,0,0,1,100.38,33.1a55.84,55.84,0,0,1,13-2.74,68.4,68.4,0,0,1,10.51-.7,13.3,13.3,0,0,1,4.79.89c.51.21.65.41.33,1a103.86,103.86,0,0,1-14.33,18.84,7,7,0,0,1-.72.61A174.93,174.93,0,0,1,98.57,63a48.18,48.18,0,0,1-7.42,4.79C87.7,69,84.18,70.08,81,72c-.53.32-1.6.5-1.25,1.32.43,1,1.27.17,1.84-.06a79.59,79.59,0,0,1,15.3-4.7,87.65,87.65,0,0,1,21.82-1.09,77.15,77.15,0,0,1,23.35,5.33,54.07,54.07,0,0,1,13.83,7.71,2.27,2.27,0,0,0,2.73.09,85.67,85.67,0,0,1,17.86-5.23,114.93,114.93,0,0,1,28-2,120.68,120.68,0,0,1,30.77,5.53c1.61.51,1.74.71,1.36,2.37a14.84,14.84,0,0,1-3.82,6.55,55.24,55.24,0,0,1-22.25,14.71c-1.94.71-4,1.2-5.88,2-2.77,1.19-5.49.42-8.23,0-1.06-.15-2.11-.43-3.16-.65a96.47,96.47,0,0,1-16.65-6.47A6.12,6.12,0,0,1,175,96.32,31.87,31.87,0,0,0,170.59,91c-.36-.32-.73-.94-1.3-.44s0,.94.26,1.34c1.32,1.85,2.62,3.72,3.85,5.63,2.59,4,3.51,8.58,4.06,13.23.91,7.71.35,15.38-.38,23.07a55.92,55.92,0,0,0,.58,16.93c.07.35.1.7.17,1.25-.48-.32-.84-.52-1.16-.78-7-5.53-14.63-2.3-18.9,2-3.1,3.16-4.16,7.2-4.49,11.46a20.28,20.28,0,0,0,1.46,10.09,13.17,13.17,0,0,0,9.59,7.57l1.42.32a48,48,0,0,1-4.13,3.55c-5.65,4.49-12,7.82-18.23,11.46l-1,.59c-.44.26-.87.58-.54,1.13s.76.3,1.16.09l4.68-2.41c7.38-3.8,14.35-8.19,20.22-14.17a3.47,3.47,0,0,1,.49-.28c0,1.26,0,2.4,0,3.53.24,14,2.41,27.56,7.68,40.57a87.92,87.92,0,0,0,7.16,13.66,97.59,97.59,0,0,1-18.63,12.76c-.29.09-.35-.1-.34-.31a1.75,1.75,0,0,1,.45-1c1.93-2.42,2.2-5.2,1.75-8.14-.1-.41.26-.84-.06-1.3-.52.24-.72.74-1,1.16a77.71,77.71,0,0,1-12,14.22A14.89,14.89,0,0,1,151.82,258.89Z"/><path class="cls-2" d="M179.11,129.56c.1-1.59.22-3.18.29-4.78,0-.63.29-.69.83-.59,19,3.55,38,7.3,56.15,14.3a210,210,0,0,1,29.56,14.38,2.1,2.1,0,0,1,1.26,2.32c-1.42,17.89-4.25,35.48-10.59,52.37a47.66,47.66,0,0,1-3.09,7c-.67,0-.81-.56-1.05-1a281.55,281.55,0,0,0-21-31.74c-3.57-4.66-7.29-9.19-11.25-13.53-3.23-3.53-6.5-7-9.95-10.36q-6.28-6-12.89-11.78-8.55-7.42-17.56-14.27A2.05,2.05,0,0,1,179.11,129.56Z"/><path class="cls-3" d="M179.11,129.56a2.46,2.46,0,0,0,1.31,2.43c5.47,4,10.72,8.36,15.87,12.79q5.79,5,11.33,10.25c2.52,2.39,5,4.79,7.43,7.29q7.57,7.86,14.37,16.42c5.21,6.59,10.07,13.43,14.64,20.47,3,4.67,6,9.4,8.69,14.28a9.74,9.74,0,0,0,.77,1c-.57,1.44-.56,1.43-1.87.6-12.76-8.14-26-15.45-39.45-22.4-9.18-4.74-18.45-9.3-28.08-13.11-.89-.35-1.78-.69-2.68-1-.53-.19-1.1-.36-1.55.17s-.17,1,.06,1.45a223.06,223.06,0,0,1,10.36,26q2.87,8.5,5,17.22c.23.93.06,1.15-.89,1.17a114.59,114.59,0,0,0-15.36,1.49c-1,.15-1.23-.21-1.52-.94A102.85,102.85,0,0,1,172,204.67a136.72,136.72,0,0,1-1.7-23.13,2.52,2.52,0,0,1,.76-1.91,45.4,45.4,0,0,0,6.67-8.44c3-5.09,3.38-10.54,2.3-16.2-.92-4.82-1.88-9.64-1.71-14.59A101,101,0,0,1,179.11,129.56Z"/><path class="cls-4" d="M11.93,139.71A104.73,104.73,0,0,1,63.62,68.83c.36-.21.61-.66,1.13-.58a115.53,115.53,0,0,0-4.4,15.47,4.2,4.2,0,0,1-1.15,1.93A28.49,28.49,0,0,0,52.3,101c-1.3,8.36-2.45,16.75-4.58,25a77.7,77.7,0,0,1-4.5,13.19A23.15,23.15,0,0,0,41,146.79c-.1,1.12-.63.69-1.18.42-6.72-3.3-13.5-6.48-20.41-9.36-.52-.22-1-.4-1.57-.58-1.68-.59-2.3-.29-2.9,1.37,0,.07,0,.15-.07.23C14.33,140.55,13.45,140.8,11.93,139.71Z"/><path class="cls-4" d="M113.43,55.56a105.23,105.23,0,0,1,46.21,10.25A103.63,103.63,0,0,1,173.81,74a128.45,128.45,0,0,0-13,3.78c-1.18.45-2.43,1.34-3.55,1.2s-2.1-1.34-3.17-2a73.1,73.1,0,0,0-26.92-10.24,85.9,85.9,0,0,0-15.09-1.3c-3.89,0-7.79.22-11.81.58.82-.69,1.65-1.37,2.45-2.08,2.68-2.32,5.42-4.6,7.92-7.12A4,4,0,0,1,113.43,55.56Z"/><path class="cls-4" d="M205,107.55a108.64,108.64,0,0,1,9.48,21.62c-.39.45-.79.12-1.2,0-10.68-2.62-21.43-5-32.28-6.79-1.06-.18-1.46-.46-1.46-1.77,0-6.21-.18-12.41-2-18.44,0-.06,0-.15.05-.36,1.78.51,3.55,1,5.32,1.53a120.44,120.44,0,0,0,19.27,3.77A8.91,8.91,0,0,1,205,107.55Z"/><path class="cls-4" d="M154.41,166.64c.07-4.18.73-8.24,3.43-11.59A13.65,13.65,0,0,1,170,149.58c3.21.25,5.86,2.14,8.07,4.36,1,1,.67,2.72.86,4.12.91,6.58-1.61,12-5.68,16.92-1.66,2-3.52,3.81-5.27,5.72a2.11,2.11,0,0,1-2.09.75,12.65,12.65,0,0,1-11.16-11A23.31,23.31,0,0,1,154.41,166.64Z"/><path class="cls-4" d="M65.23,156.66a23,23,0,0,1-.88,6.16c-1.43,5-5,7.56-9.94,8.26-3.91.54-2.82.81-4.92-2.28a39,39,0,0,1-6.66-15.48,21.9,21.9,0,0,1,.65-9.82,2.52,2.52,0,0,1,1-1.31c5.68-4.42,12.78-3.18,17.19,3A20.34,20.34,0,0,1,65.23,156.66Z"/><path class="cls-4" d="M213,195.55a106.7,106.7,0,0,1-15.43,28.29,70.46,70.46,0,0,1-2-7.09,247.87,247.87,0,0,0-12.68-34.87c-.08-.18-.14-.36-.28-.71,3,1.07,5.73,2.28,8.47,3.51,7.18,3.2,14.22,6.67,21.19,10.3C212.55,195.12,212.87,195.22,213,195.55Z"/><path class="cls-4" d="M44.86,238.26a106.32,106.32,0,0,1-22.48-28.52,101,101,0,0,1-10.16-27.85c1.38,2.27,2.71,4.57,4.14,6.82,6.4,10.14,13.24,19.95,21.74,28.49a60.45,60.45,0,0,0,10.43,8.58,1.24,1.24,0,0,1,.62,1.49c-.69,3.43-1.68,6.79-2.63,10.16C46.28,238.28,45.51,238.18,44.86,238.26Z"/><path class="cls-4" d="M195.24,226.73a115.91,115.91,0,0,1-10.84,11.32c-.45,0-.57-.37-.75-.67q-2.4-4-4.41-8.18c-.46-1-.23-1.14.77-1.29,4.44-.65,8.91-1,13.38-1.35A2.88,2.88,0,0,1,195.24,226.73Z"/><path class="cls-3" d="M31.19,206.36a15.14,15.14,0,0,1,2.94,2.16,48.4,48.4,0,0,0,16.43,8.62c-.24,2-.49,4-.71,6.05-.09.88-.38.92-1.08.44a76.49,76.49,0,0,1-13-11.76A51.18,51.18,0,0,1,31.19,206.36Z"/><path class="cls-3" d="M91.15,67.8,97,63.73c5.06-3.52,9.92-7.3,14.73-11.16.7-.56,1.24-1.35,2.17-1.61a58.89,58.89,0,0,1-6.56,6.56c-3.17,2.85-6.45,5.57-9.68,8.36a4.14,4.14,0,0,1-2.08,1.06C94.11,67.18,92.63,67.51,91.15,67.8Z"/><path class="cls-5" d="M175,96.32a126.26,126.26,0,0,0,13.31,5.75c1.66.61,3.32,1.25,5,1.87a88.55,88.55,0,0,1-10.8-2.51c-1.57-.44-3.12-1-4.69-1.41a2.17,2.17,0,0,1-1.68-1.47A16.67,16.67,0,0,0,175,96.32Z"/><path class="cls-1" d="M105,265.34c.19-5.54,1.64-10.86,3-16.2,3.4-13.68,10.42-25.36,19.83-35.7.39-.42.83-1.32,1.51-.75s-.13,1.2-.51,1.69c-5.58,7.25-10.94,14.65-14.7,23.05-3.4,7.59-5.26,15.62-6.67,23.77a10.9,10.9,0,0,0-.24,4.37C106.47,265.7,105.77,265.32,105,265.34Z"/><path class="cls-3" d="M166.66,243.5a10,10,0,0,1-1.69,8.58c-.24.31-.75.54-.4,1.08a77.34,77.34,0,0,1-7.74,3.84c-.2-.56-.2-.55.36-1.15a72.38,72.38,0,0,0,4.9-5.74,48.72,48.72,0,0,0,3.78-5.82C166.05,244,166.15,243.51,166.66,243.5Z"/><path class="cls-1" d="M166.66,243.5a55.22,55.22,0,0,1-9.68,13c-.13.13-.46.26-.15.54a29.65,29.65,0,0,1-5,1.89,99.72,99.72,0,0,0,9.51-10.09,60.11,60.11,0,0,0,4.13-5.87c.26-.42.43-1.23,1.16-.9S166.68,243,166.66,243.5Z"/><path class="cls-1" d="M142.65,131.34a12.38,12.38,0,0,1,1.09-5.07c2.32-5.76,10.62-7,15.32-4,6.43,4.1,6.08,13.54,2,17.81-2.84,3-8.31,3.7-12.63,1.66S142.61,136.23,142.65,131.34Z"/><path class="cls-1" d="M74.42,111.78c7,0,9.46,4.67,9.2,11a15.42,15.42,0,0,1-.24,1.9c-.77,4.48-3.12,7.19-9.08,8.28-5.06.93-8.54-.84-10.5-4.87A11.35,11.35,0,0,1,66.29,115,11.19,11.19,0,0,1,74.42,111.78Z"/><path class="cls-1" d="M88.51,146.51c.27,0,.32-.07.34,0,5.24,4.06,10.51,2.35,15.77.07,1.13-.49,2.18-1.17,3.28-1.72a9.66,9.66,0,0,1,10.21.71,67.74,67.74,0,0,1,6.78,5.13c3.14,2.65,6.47,3.44,10.25,1.52.06,0,.15,0,.23,0a4.51,4.51,0,0,1-3.47,1.88c-.91.08-1.23.47-1.48,1.32-3,10.21-7.22,19.85-13.63,28.43a21.72,21.72,0,0,1-4.6,4.68c-3.33,2.42-6.13,2.09-8.81-1a34.64,34.64,0,0,1-6.24-12c-1.67-5.07-2.27-10.35-2.87-15.62-.35-3.05-.66-6.1-.9-9.16a1,1,0,0,0-.91-1.13A6.29,6.29,0,0,1,88.51,146.51Z"/><path class="cls-3" d="M104.19,212.13A18,18,0,0,1,92.68,208c-.65-.54-1.54-1.21-1.19-2.15s1.42-.67,2.24-.67c2.78,0,5.53.46,8.3.64a50.56,50.56,0,0,0,7.28-.07c2.36-.18,4.72-.84,7.1-.4,1.29.23,1.38.71.52,1.74a13.51,13.51,0,0,1-5.29,3.39A20.67,20.67,0,0,1,104.19,212.13Z"/><path class="cls-6" d="M113.52,129.59c.38.06.85.11,1.32.21s1.06.24,1.17.86a1.57,1.57,0,0,1-.61,1.48,2.94,2.94,0,0,1-3.73-.12,1.64,1.64,0,0,1-.55-1.51c.15-.63.72-.69,1.23-.79C112.7,129.65,113.06,129.64,113.52,129.59Z"/><path class="cls-7" d="M155,126.7a4,4,0,0,1-4.34,4.32c-2.62,0-4.62-1.79-4.61-4.13,0-2.76,1.89-4.84,4.37-4.82A4.46,4.46,0,0,1,155,126.7Z"/><path class="cls-7" d="M73.43,118.44c0-2.69,1.5-4.18,4.12-4.17a4.37,4.37,0,0,1,4.43,4.5c0,2.47-1.84,4.17-4.54,4.13S73.42,121.24,73.43,118.44Z"/><path class="cls-8" d="M124,169a61.77,61.77,0,0,1-10.3,16.57,13.46,13.46,0,0,1-2.65,2.23c-2.61,1.72-4.4,1.46-6.52-.85a27.43,27.43,0,0,1-5.17-8.82,47.23,47.23,0,0,1-3-11.52c-.19-.83.41-1.23.94-1.64a14,14,0,0,1,6.66-2.49,40.73,40.73,0,0,1,8.11-.31c4.7.27,8.42,2.48,11.54,5.88A1.1,1.1,0,0,1,124,169Z"/><path class="cls-9" d="M125.12,166.72c-6.41-13.53-22.26-11.86-29-3.66-.58-.54-.32-1.25-.43-1.87-.58-3.33-.7-6.71-1.15-10.05-.11-.77.08-1.13,1-1.16a21,21,0,0,0,10.59-2.85A15.81,15.81,0,0,1,111,145c2.48-.53,4.62.41,6.63,1.69,2.41,1.55,4.57,3.45,6.85,5.19a10,10,0,0,0,4.28,2.27c.91.16.52.83.39,1.31a83.54,83.54,0,0,1-3,8.58Z"/><path class="cls-10" d="M124,169c-3.24-3.83-7.17-6.37-12.35-6.5-4.21-.11-8.42-.14-12.36,1.66-1.18.54-2.4,1.1-2.93,2.45a2.16,2.16,0,0,1,.38-2.42A16.74,16.74,0,0,1,111,158c6.61.38,11,4.51,13.15,9.91A1,1,0,0,1,124,169Z"/></svg>